<svg width="93" height="59" viewBox="0 0 93 59" fill="none" xmlns="http://www.w3.org/2000/svg">
<path d="M76.6864 16.7027L46.5 10.5243V58.8738L76.6864 52.1589V16.7027Z" fill="#5198D9"/>
<path opacity="0.1" d="M76.6864 16.7027L46.5 10.5243V58.8738L76.6864 52.1589V16.7027Z" fill="#2C3338"/>
<path d="M16.3135 16.7027L46.5 10.5243V58.8738L16.3135 52.2925V16.7027Z" fill="#5198D9"/>
<path opacity="0.17" d="M16.3135 16.6755L46.5 10.5243V58.8738L16.3135 52.3214V16.6755Z" fill="#2C3338"/>
<path d="M46.5 10.9352L62.3206 0.0388336L92.3602 6.42668L76.5395 16.932L46.5 10.9352Z" fill="#5198D9"/>
<path d="M0.639832 6.63735L16.1913 16.932L46.5 10.8607L31.1076 0.0388336L0.639832 6.63735Z" fill="#5198D9"/>
<path opacity="0.05" d="M0.639832 6.55633L16.6396 16.932L47.0805 10.9352L31.2406 0.0388336L0.639832 6.55633Z" fill="#2C3338"/>
<path d="M40.5928 23.9223H29.1868C29.1304 23.9223 29.0847 23.9933 29.0847 24.0808V24.3463C29.0847 24.4339 29.1304 24.5049 29.1868 24.5049H40.5928C40.6492 24.5049 40.6949 24.4339 40.6949 24.3463V24.0808C40.6949 23.9933 40.6492 23.9223 40.5928 23.9223Z" fill="#2C3338"/>
<path d="M56.9492 23.9223H43.5975V24.5049H56.9492V23.9223Z" fill="#2C3338"/>
<path opacity="0.6" d="M56.9492 22.1748H52.8856V22.7573H56.9492V22.1748Z" fill="#2C3338"/>
<path d="M52.3051 25.6699H48.2415V26.2524H52.3051V25.6699Z" fill="#2C3338"/>
<path d="M16.3135 16.932V52.3283L46.6708 58.8738L47.0805 23.7443L16.3135 16.932Z" fill="#5198D9"/>
<path d="M76.6864 52.1954L46.5 58.8738V23.7443L76.6864 16.932V52.1954Z" fill="#5198D9"/>
<path opacity="0.07" d="M76.6864 52.1954L46.5 58.8738V23.7443L76.6864 16.932V52.1954Z" fill="#2C3338"/>
<path opacity="0.1" d="M15.733 35.4539L32.7901 39.068L46.5 29.6967V23.9406L16.0514 17.5146L15.733 35.4539Z" fill="#2C3338"/>
<path opacity="0.1" d="M77.267 35.4539L60.2099 39.068L46.5 29.6967V23.9406L76.9486 17.5146L77.267 35.4539Z" fill="#2C3338"/>
<path d="M16.1913 16.932L0.639832 27.9049L30.9486 34.4078L46.5 23.8413L16.1913 16.932Z" fill="#5198D9"/>
<path d="M76.7044 16.932L92.3602 27.9049L62.3143 34.4078L46.5 23.8413L76.7044 16.932Z" fill="#5198D9"/>
<path opacity="0.07" d="M76.7044 16.932L92.3602 27.9049L62.3143 34.4078L46.5 23.8413L76.7044 16.932Z" fill="#2C3338"/>
</svg>
