<?xml version="1.0" encoding="iso-8859-1"?>
<!-- Generator: Adobe Illustrator 14.0.0, SVG Export Plug-In . SVG Version: 6.00 Build 43363)  -->
<!DOCTYPE svg PUBLIC "-//W3C//DTD SVG 1.1//EN" "http://www.w3.org/Graphics/SVG/1.1/DTD/svg11.dtd">
<svg version="1.1" id="Layer_2" xmlns="http://www.w3.org/2000/svg" xmlns:xlink="http://www.w3.org/1999/xlink" x="0px" y="0px"
	 width="576px" height="576px" viewBox="0 0 576 576" style="enable-background:new 0 0 576 576;" xml:space="preserve">
<path style="fill:#F18CB9;" d="M135.91,129.458l39.499-53.117l-51.055-37.966c0,0-22.406-12.864-62.402,40.839l-0.001-0.001
	c-0.028,0.038-0.054,0.074-0.082,0.112c-0.011,0.014-0.021,0.027-0.031,0.041l0,0C21.92,133.129,40.69,150.883,40.69,150.883
	l51.056,37.967L135.91,129.458L135.91,129.458z"/>
<rect x="132.141" y="84.914" transform="matrix(0.8024 0.5967 -0.5967 0.8024 124.9361 -67.3443)" style="fill:#C7C8CA;" width="64.071" height="140.205"/>
<polygon style="fill:#FFCB05;" points="236.664,121.558 152.839,234.281 392.482,412.486 385.727,368.56 432.198,358.18 
	427.259,310.911 473.84,301.283 "/>
<polygon style="fill:#FBE89F;" points="475.661,305.798 432.509,314.633 437.744,362.402 391.928,373.099 397.855,415.145 
	478.113,426.72 510.537,384.016 "/>
<polygon style="fill:#231F20;" points="482.84,428.897 513.393,387.811 537.146,437.217 "/>
</svg>
